<svg width="16" height="16" viewBox="0 0 16 16" fill="none" xmlns="http://www.w3.org/2000/svg">
<path d="M12.8339 4.00016C12.8338 3.42559 12.6053 2.87458 12.1991 2.46826C11.7928 2.06199 11.2417 1.83358 10.6672 1.8335C10.0925 1.8335 9.54098 2.06192 9.13464 2.46826L3.55261 8.16488L3.5461 8.17139C3.21676 8.4954 2.95468 8.88171 2.77526 9.30746C2.59585 9.73322 2.50241 10.1905 2.50052 10.6525C2.49866 11.1145 2.58828 11.5723 2.7642 11.9995C2.94014 12.4267 3.19923 12.8148 3.52592 13.1414C3.85259 13.4681 4.24068 13.7272 4.66784 13.9032C5.095 14.079 5.5529 14.1687 6.01485 14.1668C6.47685 14.1649 6.93415 14.0715 7.3599 13.8921C7.78557 13.7127 8.17135 13.4505 8.49532 13.1213L14.0806 7.42139C14.2739 7.22416 14.5904 7.221 14.7876 7.41423C14.9849 7.60749 14.9881 7.92402 14.7948 8.12126L9.20886 13.8218L9.20821 13.8224C8.7916 14.2459 8.29533 14.5826 7.74792 14.8133C7.20051 15.044 6.61278 15.1644 6.01875 15.1668C5.42479 15.1692 4.83621 15.0538 4.28698 14.8276C3.73771 14.6014 3.23828 14.2685 2.81823 13.8485C2.39834 13.4285 2.06589 12.9295 1.83972 12.3804C1.61355 11.8312 1.49815 11.2425 1.50052 10.6486C1.50294 10.0547 1.62281 9.46676 1.85339 8.91943C2.08406 8.37202 2.42082 7.87511 2.84427 7.4585L8.42435 1.76449L8.42761 1.76123C9.02149 1.16735 9.82732 0.833496 10.6672 0.833496C11.507 0.833575 12.3123 1.16742 12.9061 1.76123C13.4999 2.35508 13.8338 3.16037 13.8339 4.00016C13.8339 4.84003 13.5 5.64587 12.9061 6.23975L12.9055 6.2391L7.30066 11.9598L7.29675 11.9637C6.95297 12.3074 6.48665 12.5007 6.00052 12.5008C5.51428 12.5008 5.04751 12.3075 4.70365 11.9637C4.35978 11.6198 4.16654 11.1531 4.16654 10.6668C4.16656 10.1806 4.35989 9.71444 4.70365 9.37061L10.3098 3.6499C10.5031 3.45285 10.8196 3.44952 11.0168 3.64274C11.2138 3.83597 11.217 4.15257 11.024 4.34977L5.41459 10.0737L5.41068 10.0776C5.25445 10.2339 5.16656 10.4458 5.16654 10.6668C5.16654 10.8878 5.25448 11.0997 5.41068 11.256C5.56701 11.4124 5.77944 11.5008 6.00052 11.5008C6.2215 11.5007 6.43346 11.4123 6.58972 11.256L12.1952 5.53597L12.1991 5.53206C12.6053 5.12574 12.8339 4.57473 12.8339 4.00016Z" fill="#737373"/>
</svg>
