<svg width="16" height="16" viewBox="0 0 16 16" fill="none" xmlns="http://www.w3.org/2000/svg">
<g clip-path="url(#clip0_1511_62627)">
<path d="M14.1668 6.66683C14.1668 6.20659 13.7937 5.8335 13.3335 5.8335H6.66683C6.20659 5.8335 5.8335 6.20659 5.8335 6.66683V13.3335C5.8335 13.7937 6.20659 14.1668 6.66683 14.1668H13.3335C13.7937 14.1668 14.1668 13.7937 14.1668 13.3335V6.66683ZM15.1668 13.3335C15.1668 14.346 14.346 15.1668 13.3335 15.1668H6.66683C5.65431 15.1668 4.8335 14.346 4.8335 13.3335V6.66683C4.8335 5.65431 5.65431 4.8335 6.66683 4.8335H13.3335C14.346 4.8335 15.1668 5.65431 15.1668 6.66683V13.3335Z" fill="#333333"/>
<path d="M10.1668 2.66683C10.1668 2.20964 9.79069 1.8335 9.3335 1.8335H2.66683C2.20964 1.8335 1.8335 2.20964 1.8335 2.66683V9.3335C1.8335 9.79069 2.20964 10.1668 2.66683 10.1668C2.94297 10.1668 3.16683 10.3907 3.16683 10.6668C3.16683 10.943 2.94297 11.1668 2.66683 11.1668C1.65735 11.1668 0.833496 10.343 0.833496 9.3335V2.66683C0.833496 1.65735 1.65735 0.833496 2.66683 0.833496H9.3335C10.343 0.833496 11.1668 1.65735 11.1668 2.66683C11.1668 2.94297 10.943 3.16683 10.6668 3.16683C10.3907 3.16683 10.1668 2.94297 10.1668 2.66683Z" fill="#333333"/>
</g>
<defs>
<clipPath id="clip0_1511_62627">
<rect width="16" height="16" fill="white"/>
</clipPath>
</defs>
</svg>
