<svg width="16" height="16" viewBox="0 0 16 16" fill="none" xmlns="http://www.w3.org/2000/svg">
<path d="M14 3.50016C14.2761 3.50016 14.5 3.72402 14.5 4.00016C14.5 4.2763 14.2761 4.50016 14 4.50016H2C1.72386 4.50016 1.5 4.2763 1.5 4.00016C1.5 3.72402 1.72386 3.50016 2 3.50016H14Z" fill="#EF4444"/>
<path d="M2.83333 13.3335V4.00016C2.83333 3.72402 3.05719 3.50016 3.33333 3.50016C3.60948 3.50016 3.83333 3.72402 3.83333 4.00016V13.3335C3.83333 13.5042 3.92369 13.7168 4.10352 13.8966C4.28334 14.0765 4.49595 14.1668 4.66667 14.1668H11.3333C11.5041 14.1668 11.7167 14.0765 11.8965 13.8966C12.0763 13.7168 12.1667 13.5042 12.1667 13.3335V4.00016C12.1667 3.72402 12.3905 3.50016 12.6667 3.50016C12.9428 3.50016 13.1667 3.72402 13.1667 4.00016V13.3335C13.1667 13.8294 12.9237 14.2835 12.6035 14.6037C12.2833 14.9239 11.8293 15.1668 11.3333 15.1668H4.66667C4.17072 15.1668 3.71666 14.9239 3.39648 14.6037C3.07631 14.2835 2.83333 13.8294 2.83333 13.3335Z" fill="#EF4444"/>
<path d="M10.1667 4.00016V2.66683C10.1667 2.49611 10.0763 2.28351 9.89648 2.10368C9.71666 1.92385 9.50405 1.8335 9.33333 1.8335H6.66667C6.49595 1.8335 6.28334 1.92385 6.10352 2.10368C5.92369 2.28351 5.83333 2.49611 5.83333 2.66683V4.00016C5.83333 4.2763 5.60948 4.50016 5.33333 4.50016C5.05719 4.50016 4.83333 4.2763 4.83333 4.00016V2.66683C4.83333 2.17088 5.07631 1.71682 5.39648 1.39665C5.71666 1.07647 6.17072 0.833496 6.66667 0.833496H9.33333C9.82928 0.833496 10.2833 1.07647 10.6035 1.39665C10.9237 1.71682 11.1667 2.17088 11.1667 2.66683V4.00016C11.1667 4.2763 10.9428 4.50016 10.6667 4.50016C10.3905 4.50016 10.1667 4.2763 10.1667 4.00016Z" fill="#EF4444"/>
<path d="M6.16667 11.3335V7.3335C6.16667 7.05735 6.39052 6.8335 6.66667 6.8335C6.94281 6.8335 7.16667 7.05735 7.16667 7.3335V11.3335C7.16667 11.6096 6.94281 11.8335 6.66667 11.8335C6.39052 11.8335 6.16667 11.6096 6.16667 11.3335Z" fill="#EF4444"/>
<path d="M8.83333 11.3335V7.3335C8.83333 7.05735 9.05719 6.8335 9.33333 6.8335C9.60948 6.8335 9.83333 7.05735 9.83333 7.3335V11.3335C9.83333 11.6096 9.60948 11.8335 9.33333 11.8335C9.05719 11.8335 8.83333 11.6096 8.83333 11.3335Z" fill="#EF4444"/>
</svg>
