<svg width="16" height="16" viewBox="0 0 16 16" fill="none" xmlns="http://www.w3.org/2000/svg">
<path d="M1.5 8C1.5 6.27609 2.18466 4.62263 3.40365 3.40365C4.62263 2.18466 6.27609 1.5 8 1.5H8.00195L8.33984 1.50911C9.91123 1.59095 11.4097 2.20042 12.5924 3.23828L12.8411 3.46745L14.3535 4.97982C14.5488 5.17508 14.5488 5.49159 14.3535 5.68685C14.1583 5.88211 13.8417 5.88211 13.6465 5.68685L12.1458 4.1862L11.9329 3.99023C10.8469 3.0371 9.45016 2.5056 7.9987 2.5C6.54048 2.50034 5.14182 3.07953 4.11068 4.11068C3.07923 5.14213 2.5 6.54131 2.5 8C2.5 8.27614 2.27614 8.5 2 8.5C1.72386 8.5 1.5 8.27614 1.5 8Z" fill="#333333"/>
<path d="M13.5 2C13.5 1.72386 13.7239 1.5 14 1.5C14.2761 1.5 14.5 1.72386 14.5 2V5.33333C14.5 5.60948 14.2761 5.83333 14 5.83333H10.6667C10.3905 5.83333 10.1667 5.60948 10.1667 5.33333C10.1667 5.05719 10.3905 4.83333 10.6667 4.83333H13.5V2Z" fill="#333333"/>
<path d="M13.5 8C13.5 7.72386 13.7239 7.5 14 7.5C14.2761 7.5 14.5 7.72386 14.5 8C14.5 9.72391 13.8153 11.3774 12.5964 12.5964C11.3774 13.8153 9.72391 14.5 8 14.5H7.99805C6.19168 14.4932 4.45758 13.7881 3.15885 12.5326L1.64648 11.0202C1.45122 10.8249 1.45122 10.5084 1.64648 10.3132C1.84175 10.1179 2.15825 10.1179 2.35352 10.3132L3.85417 11.8138C4.96708 12.8897 6.45276 13.4932 8.00065 13.4993C9.45911 13.4992 10.858 12.9206 11.8893 11.8893C12.9208 10.8579 13.5 9.45869 13.5 8Z" fill="#333333"/>
<path d="M1.5 14V10.6667C1.5 10.3905 1.72386 10.1667 2 10.1667H5.33333C5.60948 10.1667 5.83333 10.3905 5.83333 10.6667C5.83333 10.9428 5.60948 11.1667 5.33333 11.1667H2.5V14C2.5 14.2761 2.27614 14.5 2 14.5C1.72386 14.5 1.5 14.2761 1.5 14Z" fill="#333333"/>
</svg>
