<svg width="16" height="16" viewBox="0 0 16 16" fill="none" xmlns="http://www.w3.org/2000/svg">
<g clip-path="url(#clip0_1511_62682)">
<path d="M14.1668 3.21305C14.1668 2.84725 14.0211 2.49649 13.7625 2.23779C13.5039 1.97921 13.1535 1.83362 12.7879 1.8335C12.4222 1.83345 12.0713 1.97869 11.8126 2.23714L2.91481 11.1369C2.81843 11.233 2.74596 11.3513 2.70582 11.4813L2.70647 11.4819L1.91611 14.0828L4.51897 13.2938C4.64946 13.2541 4.76873 13.183 4.86533 13.0868L13.7625 4.18831C14.0211 3.92972 14.1667 3.57881 14.1668 3.21305ZM15.1668 3.21305C15.1667 3.80469 14.9462 4.37364 14.5509 4.81006L14.4695 4.89535L5.57106 13.7951C5.38513 13.9804 5.16196 14.1237 4.91676 14.215L4.80999 14.2508L1.90765 15.131H1.90634C1.76236 15.1743 1.60943 15.1781 1.46364 15.1414C1.31774 15.1048 1.18468 15.029 1.07822 14.9227C0.971811 14.8165 0.895751 14.6837 0.858818 14.5379C0.821905 14.3921 0.825509 14.2387 0.868584 14.0946L0.869235 14.0926L1.74944 11.1909L1.75009 11.1896C1.8382 10.9024 1.99568 10.6413 2.20843 10.4292L11.1049 1.53011C11.5512 1.08397 12.1568 0.833417 12.7879 0.833496C13.4188 0.833621 14.024 1.08455 14.4701 1.53076C14.9162 1.977 15.1668 2.58212 15.1668 3.21305Z" fill="#737373"/>
<path d="M9.64658 2.97998C9.84184 2.78472 10.1583 2.78472 10.3536 2.97998L13.0203 5.64665C13.2155 5.84191 13.2155 6.15842 13.0203 6.35368C12.825 6.54894 12.5085 6.54894 12.3132 6.35368L9.64658 3.68701C9.45131 3.49175 9.45131 3.17524 9.64658 2.97998Z" fill="#737373"/>
</g>
<defs>
<clipPath id="clip0_1511_62682">
<rect width="16" height="16" fill="white"/>
</clipPath>
</defs>
</svg>
