<svg width="16" height="16" viewBox="0 0 16 16" fill="none" xmlns="http://www.w3.org/2000/svg">
<g clip-path="url(#clip0_1511_62649)">
<path d="M14.1668 5.99984C14.1668 5.77882 14.079 5.56693 13.9227 5.41064C13.7664 5.25436 13.5545 5.1665 13.3335 5.1665H11.3335C11.1852 5.1665 11.0444 5.10073 10.9494 4.98682L9.43245 3.1665H6.56787L5.05094 4.98682C4.95595 5.10073 4.81516 5.1665 4.66683 5.1665H2.66683C2.44582 5.1665 2.23392 5.25436 2.07764 5.41064C1.92136 5.56692 1.8335 5.77882 1.8335 5.99984V11.9998C1.8335 12.2209 1.92136 12.4327 2.07764 12.589C2.23392 12.7453 2.44582 12.8332 2.66683 12.8332H13.3335C13.5545 12.8332 13.7664 12.7453 13.9227 12.589C14.079 12.4327 14.1668 12.2209 14.1668 11.9998V5.99984ZM15.1668 11.9998C15.1668 12.4861 14.9735 12.9522 14.6297 13.2961C14.2859 13.6399 13.8197 13.8332 13.3335 13.8332H2.66683C2.1806 13.8332 1.71442 13.6399 1.37061 13.2961C1.02679 12.9522 0.833496 12.4861 0.833496 11.9998V5.99984C0.833496 5.51361 1.02679 5.04743 1.37061 4.70361C1.71442 4.3598 2.1806 4.1665 2.66683 4.1665H4.43245L5.94938 2.34619L5.98714 2.30583C6.07974 2.2169 6.2037 2.1665 6.3335 2.1665H9.66683C9.81516 2.1665 9.95595 2.23227 10.0509 2.34619L11.5679 4.1665H13.3335C13.8197 4.1665 14.2859 4.3598 14.6297 4.70361C14.9735 5.04743 15.1668 5.51361 15.1668 5.99984V11.9998Z" fill="#737373"/>
<path d="M9.50016 8.6665C9.50016 7.83808 8.82859 7.1665 8.00016 7.1665C7.17174 7.1665 6.50016 7.83808 6.50016 8.6665C6.50016 9.49493 7.17174 10.1665 8.00016 10.1665C8.82859 10.1665 9.50016 9.49493 9.50016 8.6665ZM10.5002 8.6665C10.5002 10.0472 9.38087 11.1665 8.00016 11.1665C6.61945 11.1665 5.50016 10.0472 5.50016 8.6665C5.50016 7.28579 6.61945 6.1665 8.00016 6.1665C9.38087 6.1665 10.5002 7.28579 10.5002 8.6665Z" fill="#737373"/>
</g>
<defs>
<clipPath id="clip0_1511_62649">
<rect width="16" height="16" fill="white"/>
</clipPath>
</defs>
</svg>
