<svg width="16" height="16" viewBox="0 0 16 16" fill="none" xmlns="http://www.w3.org/2000/svg">
<path d="M11.3333 12.8334C11.6094 12.8334 11.8333 13.0572 11.8333 13.3334C11.8333 13.6095 11.6094 13.8334 11.3333 13.8334H4.66663C4.39049 13.8334 4.16663 13.6095 4.16663 13.3334C4.16663 13.0572 4.39049 12.8334 4.66663 12.8334H11.3333Z" fill="#737373"/>
<path d="M8.2402 6.40627C8.38417 6.17068 8.69144 6.09637 8.92705 6.24025C9.16263 6.38422 9.23695 6.69149 9.09307 6.9271C8.79511 7.41467 8.72358 7.91803 8.75062 8.46161C8.76433 8.73722 8.80271 9.01783 8.84958 9.31252C8.8951 9.59877 8.95137 9.91273 8.98825 10.2142C9.06249 10.8213 9.07826 11.4944 8.77145 12.1406C8.4601 12.7964 7.85811 13.3409 6.87366 13.7884C6.62232 13.9027 6.32587 13.7917 6.21155 13.5404C6.09731 13.289 6.20831 12.9926 6.4596 12.8783C7.30827 12.4925 7.68955 12.087 7.86781 11.7116C8.05056 11.3267 8.0628 10.8871 7.99541 10.336C7.96146 10.0584 7.9121 9.78134 7.8626 9.47007C7.81443 9.16721 7.76841 8.84267 7.75192 8.51109C7.71857 7.84019 7.80494 7.11858 8.2402 6.40627Z" fill="#737373"/>
<path d="M2.57874 5.24117C4.54564 4.88994 5.75923 5.23074 6.62757 5.86226C7.49287 6.49162 8.00043 7.55312 8.34111 8.57515C8.38645 8.71117 8.37073 8.85999 8.29879 8.98401C8.22683 9.10801 8.10539 9.19544 7.96481 9.22359C6.60293 9.49597 5.463 9.52357 4.44333 8.9801C4.44057 8.97872 4.43762 8.97758 4.43486 8.97619C4.43315 8.97528 4.43136 8.97451 4.42965 8.97359C3.47648 8.49128 2.67865 7.49082 2.18812 5.87919C2.1465 5.74246 2.16558 5.59419 2.2402 5.47229C2.31482 5.3504 2.43805 5.26629 2.57874 5.24117ZM6.03903 6.67086C5.51036 6.28644 4.73062 5.98775 3.33786 6.14091C3.73592 7.14811 4.25532 7.72248 4.77015 8.02112L4.88994 8.08622L4.90361 8.09338C5.50232 8.41574 6.2044 8.48429 7.18812 8.34273C6.89196 7.61509 6.52337 7.02311 6.03903 6.67086Z" fill="#737373"/>
<path d="M12.6479 2.16734C12.7874 2.16217 12.9232 2.21545 13.0216 2.31447C13.1198 2.41342 13.1721 2.5489 13.1661 2.68817C13.0954 4.31419 12.6623 5.31109 11.8868 6.08661C11.8738 6.09961 11.8602 6.11222 11.8458 6.12372C11.0761 6.73949 10.0327 7.09552 8.69282 7.16603C8.55869 7.17307 8.42716 7.12603 8.32823 7.03517C8.22929 6.94431 8.17115 6.81723 8.16678 6.68296C8.13288 5.63942 8.41591 4.60996 8.97862 3.73049C8.99332 3.70751 9.00986 3.68566 9.0281 3.66538C9.36108 3.29541 9.77988 2.93225 10.3712 2.65562C10.96 2.38023 11.695 2.20265 12.6479 2.16734ZM12.1225 3.209C11.5626 3.27483 11.134 3.40267 10.795 3.56122C10.3681 3.76092 10.0601 4.01987 9.79894 4.30471C9.45455 4.85497 9.24519 5.4761 9.1837 6.11786C10.0757 6.00271 10.7261 5.72998 11.198 5.36004C11.6678 4.88303 11.999 4.27352 12.1225 3.209Z" fill="#737373"/>
</svg>
