<svg width="24" height="24" viewBox="0 0 24 24" fill="none" xmlns="http://www.w3.org/2000/svg">
<path d="M21.2496 16.5C21.2496 16.0076 21.1529 15.5194 20.9645 15.0645C20.776 14.6096 20.4991 14.1968 20.151 13.8487C19.8028 13.5005 19.3901 13.2236 18.9352 13.0352C18.4802 12.8467 17.9921 12.75 17.4996 12.75H15.7096C15.378 12.7499 15.0856 12.5317 14.9908 12.2139C14.6597 11.1033 14.0267 10.1063 13.1617 9.33498C12.2967 8.56356 11.2337 8.04804 10.0924 7.84572C8.95127 7.64346 7.77626 7.7625 6.69886 8.18947C5.62135 8.61653 4.68363 9.33545 3.99085 10.2647C3.29829 11.1937 2.87776 12.2969 2.77601 13.4512C2.67431 14.6058 2.89499 15.7667 3.41468 16.8028C3.93435 17.8387 4.73221 18.7096 5.71839 19.3184C6.70455 19.9272 7.84071 20.2497 8.99964 20.25H17.4996C17.9921 20.25 18.4802 20.1533 18.9352 19.9649C19.3901 19.7764 19.8028 19.4995 20.151 19.1514C20.4991 18.8033 20.776 18.3904 20.9645 17.9356C21.1529 17.4806 21.2496 16.9925 21.2496 16.5ZM22.7496 16.5C22.7496 17.1894 22.614 17.8719 22.3502 18.5088C22.0865 19.1456 21.6998 19.7245 21.2125 20.2119C20.725 20.6994 20.1454 21.0868 19.5084 21.3506C18.8716 21.6143 18.1889 21.75 17.4996 21.75H8.99964C7.56242 21.7497 6.15327 21.3497 4.9303 20.5947C3.70743 19.8398 2.71824 18.7592 2.07386 17.4746C1.42963 16.1902 1.15583 14.7518 1.28187 13.3203C1.40796 11.8887 1.92971 10.5204 2.7887 9.36819C3.64775 8.21595 4.81002 7.3245 6.14612 6.79494C7.48212 6.26547 8.9391 6.11835 10.3541 6.36916C11.7693 6.62003 13.0871 7.25928 14.1598 8.21584C15.0913 9.04656 15.8058 10.0883 16.2467 11.25H17.4996C18.1889 11.25 18.8716 11.3857 19.5084 11.6494C20.1454 11.9133 20.725 12.3006 21.2125 12.7881C21.6998 13.2755 22.0865 13.8544 22.3502 14.4912C22.614 15.1281 22.7496 15.8107 22.7496 16.5Z" fill="#5FA89A"/>
<path d="M21.25 10.0002C21.25 9.40356 21.0126 8.83133 20.5908 8.40939C20.1689 7.98747 19.5966 7.75026 19 7.75021H16.7929C16.4578 7.75021 16.163 7.52766 16.0713 7.20529C15.7783 6.17434 15.1454 5.27258 14.2754 4.64669C13.4053 4.02081 12.3489 3.70702 11.2783 3.75704C10.2078 3.80713 9.18573 4.21791 8.37791 4.92208C7.57 5.62636 7.02371 6.58314 6.8281 7.63693C6.7525 8.0441 6.36126 8.313 5.95408 8.23751C5.54693 8.16194 5.2781 7.77063 5.35349 7.36349C5.61084 5.97707 6.32962 4.71781 7.39256 3.79122C8.45544 2.86481 9.80054 2.3248 11.209 2.259C12.6174 2.19327 14.0067 2.60554 15.1513 3.42892C16.1399 4.14004 16.8949 5.12204 17.331 6.25021H19C19.9945 6.25026 20.9481 6.64562 21.6513 7.34884C22.3545 8.05208 22.75 9.00573 22.75 10.0002C22.7499 10.4143 22.414 10.7501 22 10.7502C21.5858 10.7502 21.2501 10.4143 21.25 10.0002Z" fill="#5FA89A"/>
</svg>
