<svg width="24" height="24" viewBox="0 0 24 24" fill="none" xmlns="http://www.w3.org/2000/svg">
<path d="M18.25 15C18.25 13.2779 17.3965 11.5782 15.5312 10.0859C14.0248 8.88075 12.7872 7.25123 12 5.4541C11.2128 7.25123 9.97524 8.88075 8.46875 10.0859C6.60347 11.5782 5.75 13.2779 5.75 15C5.75 16.6576 6.40895 18.2468 7.58105 19.4189C8.75316 20.591 10.3424 21.25 12 21.25C13.6576 21.25 15.2468 20.591 16.4189 19.4189C17.591 18.2468 18.25 16.6576 18.25 15ZM19.75 15C19.75 17.0554 18.9339 19.0271 17.4805 20.4805C16.0271 21.9339 14.0554 22.75 12 22.75C9.94457 22.75 7.97294 21.9339 6.51953 20.4805C5.06612 19.0271 4.25 17.0554 4.25 15C4.25 12.7221 5.39653 10.6218 7.53125 8.91406C9.39917 7.41973 10.8007 5.17246 11.2646 2.85254L11.3018 2.72656C11.4125 2.44333 11.6871 2.25 12 2.25C12.3574 2.25 12.6651 2.50217 12.7354 2.85254C13.1993 5.17246 14.6008 7.41973 16.4688 8.91406C18.6035 10.6218 19.75 12.7221 19.75 15Z" fill="#2F80C5"/>
</svg>
