<svg width="24" height="24" viewBox="0 0 24 24" fill="none" xmlns="http://www.w3.org/2000/svg">
<path d="M15.25 12C15.25 10.2051 13.7949 8.75 12 8.75C10.2051 8.75 8.75 10.2051 8.75 12C8.75 13.7949 10.2051 15.25 12 15.25C13.7949 15.25 15.25 13.7949 15.25 12ZM16.75 12C16.75 14.6234 14.6234 16.75 12 16.75C9.37665 16.75 7.25 14.6234 7.25 12C7.25 9.37665 9.37665 7.25 12 7.25C14.6234 7.25 16.75 9.37665 16.75 12Z" fill="#D4A72C"/>
<path d="M11.25 4V2C11.25 1.58579 11.5858 1.25 12 1.25C12.4142 1.25 12.75 1.58579 12.75 2V4C12.75 4.41421 12.4142 4.75 12 4.75C11.5858 4.75 11.25 4.41421 11.25 4Z" fill="#D4A72C"/>
<path d="M11.25 22V20C11.25 19.5858 11.5858 19.25 12 19.25C12.4142 19.25 12.75 19.5858 12.75 20V22C12.75 22.4142 12.4142 22.75 12 22.75C11.5858 22.75 11.25 22.4142 11.25 22Z" fill="#D4A72C"/>
<path d="M4.39973 4.39973C4.69262 4.10683 5.16738 4.10683 5.46027 4.39973L6.87043 5.80988C7.16317 6.10279 7.16327 6.57759 6.87043 6.87043C6.57759 7.16327 6.10279 7.16317 5.80988 6.87043L4.39973 5.46027C4.10683 5.16738 4.10683 4.69262 4.39973 4.39973Z" fill="#D4A72C"/>
<path d="M17.1297 17.1297C17.4226 16.8368 17.8974 16.8368 18.1903 17.1297L19.6004 18.5399C19.8932 18.8328 19.8933 19.3076 19.6004 19.6004C19.3076 19.8933 18.8328 19.8932 18.5399 19.6004L17.1297 18.1903C16.8368 17.8974 16.8368 17.4226 17.1297 17.1297Z" fill="#D4A72C"/>
<path d="M4 11.25C4.41421 11.25 4.75 11.5858 4.75 12C4.75 12.4142 4.41421 12.75 4 12.75H2C1.58579 12.75 1.25 12.4142 1.25 12C1.25 11.5858 1.58579 11.25 2 11.25H4Z" fill="#D4A72C"/>
<path d="M22 11.25C22.4142 11.25 22.75 11.5858 22.75 12C22.75 12.4142 22.4142 12.75 22 12.75H20C19.5858 12.75 19.25 12.4142 19.25 12C19.25 11.5858 19.5858 11.25 20 11.25H22Z" fill="#D4A72C"/>
<path d="M5.80988 17.1297C6.10278 16.8369 6.57756 16.8369 6.87043 17.1297C7.16322 17.4226 7.16322 17.8974 6.87043 18.1903L5.46027 19.6004C5.1674 19.8932 4.6926 19.8932 4.39973 19.6004C4.10686 19.3076 4.10691 18.8328 4.39973 18.5399L5.80988 17.1297Z" fill="#D4A72C"/>
<path d="M18.5399 4.39973C18.8328 4.10691 19.3076 4.10686 19.6004 4.39973C19.8932 4.6926 19.8932 5.1674 19.6004 5.46027L18.1903 6.87043C17.8974 7.16322 17.4226 7.16322 17.1297 6.87043C16.8369 6.57756 16.8369 6.10278 17.1297 5.80988L18.5399 4.39973Z" fill="#D4A72C"/>
</svg>
