<svg width="24" height="24" viewBox="0 0 24 24" fill="none" xmlns="http://www.w3.org/2000/svg">
<path d="M13.2499 4C13.2499 3.66848 13.1181 3.35063 12.8837 3.11621C12.6493 2.88179 12.3314 2.75 11.9999 2.75C11.6684 2.75 11.3505 2.88179 11.1161 3.11621C10.8817 3.35063 10.7499 3.66848 10.7499 4V14.54C10.7499 14.808 10.6069 15.0555 10.3749 15.1895C9.7553 15.5472 9.27074 16.0998 8.99695 16.7607C8.72332 17.4216 8.67511 18.1548 8.86023 18.8457C9.04542 19.5365 9.45399 20.1466 10.0214 20.582C10.589 21.0176 11.2844 21.2539 11.9999 21.2539C12.7153 21.2539 13.4108 21.0176 13.9784 20.582C14.5458 20.1466 14.9544 19.5365 15.1395 18.8457C15.3247 18.1548 15.2764 17.4216 15.0028 16.7607C14.729 16.0998 14.2445 15.5472 13.6249 15.1895C13.3929 15.0555 13.2499 14.808 13.2499 14.54V4ZM14.7499 14.1318C15.4759 14.6474 16.0455 15.3584 16.3886 16.1865C16.7886 17.1525 16.8584 18.2235 16.5878 19.2334C16.3171 20.2434 15.721 21.1359 14.8915 21.7725C14.0619 22.409 13.0455 22.7539 11.9999 22.7539C10.9542 22.7539 9.93784 22.409 9.10828 21.7725C8.27873 21.1359 7.68262 20.2434 7.41199 19.2334C7.14139 18.2235 7.21115 17.1525 7.61121 16.1865C7.95425 15.3584 8.52391 14.6474 9.24988 14.1318V4C9.24988 3.27065 9.53982 2.57139 10.0555 2.05566C10.5713 1.53994 11.2705 1.25 11.9999 1.25C12.7292 1.25 13.4285 1.53994 13.9442 2.05566C14.4599 2.57139 14.7499 3.27065 14.7499 4V14.1318Z" fill="#E06B4F"/>
</svg>
