<svg width="16" height="16" viewBox="0 0 16 16" fill="none" xmlns="http://www.w3.org/2000/svg">
<path d="M11.3338 12.8334C11.6099 12.8334 11.8338 13.0572 11.8338 13.3334C11.8338 13.6095 11.6099 13.8334 11.3338 13.8334H4.66712C4.39098 13.8334 4.16712 13.6095 4.16712 13.3334C4.16712 13.0572 4.39098 12.8334 4.66712 12.8334H11.3338Z" fill="white"/>
<path d="M8.24069 6.40627C8.38466 6.17068 8.69193 6.09637 8.92754 6.24025C9.16312 6.38422 9.23744 6.69149 9.09355 6.9271C8.7956 7.41467 8.72407 7.91803 8.75111 8.46161C8.76482 8.73722 8.8032 9.01783 8.85006 9.31252C8.89559 9.59877 8.95186 9.91273 8.98874 10.2142C9.06298 10.8213 9.07874 11.4944 8.77194 12.1406C8.46059 12.7964 7.8586 13.3409 6.87415 13.7884C6.62281 13.9027 6.32636 13.7917 6.21204 13.5404C6.0978 13.289 6.2088 12.9926 6.46009 12.8783C7.30876 12.4925 7.69004 12.087 7.86829 11.7116C8.05104 11.3267 8.06328 10.8871 7.9959 10.336C7.96195 10.0584 7.91259 9.78134 7.86308 9.47007C7.81492 9.16721 7.7689 8.84267 7.75241 8.51109C7.71906 7.84019 7.80543 7.11858 8.24069 6.40627Z" fill="white"/>
<path d="M2.57923 5.24117C4.54613 4.88994 5.75971 5.23074 6.62806 5.86226C7.49336 6.49162 8.00092 7.55312 8.3416 8.57515C8.38694 8.71117 8.37121 8.85999 8.29928 8.98401C8.22732 9.10801 8.10588 9.19544 7.9653 9.22359C6.60342 9.49597 5.46348 9.52357 4.44381 8.9801C4.44105 8.97872 4.43811 8.97758 4.43535 8.97619C4.43364 8.97528 4.43185 8.97451 4.43014 8.97359C3.47697 8.49128 2.67914 7.49082 2.18861 5.87919C2.14699 5.74246 2.16607 5.59419 2.24069 5.47229C2.31531 5.3504 2.43853 5.26629 2.57923 5.24117ZM6.03952 6.67086C5.51085 6.28644 4.73111 5.98775 3.33834 6.14091C3.73641 7.14811 4.25581 7.72248 4.77064 8.02112L4.89043 8.08622L4.9041 8.09338C5.5028 8.41574 6.20489 8.48429 7.18861 8.34273C6.89245 7.61509 6.52386 7.02311 6.03952 6.67086Z" fill="white"/>
<path d="M12.6484 2.16734C12.7879 2.16217 12.9237 2.21545 13.0221 2.31447C13.1203 2.41342 13.1726 2.5489 13.1666 2.68817C13.0959 4.31419 12.6628 5.31109 11.8873 6.08661C11.8743 6.09961 11.8607 6.11222 11.8463 6.12372C11.0766 6.73949 10.0332 7.09552 8.69331 7.16603C8.55918 7.17307 8.42765 7.12603 8.32872 7.03517C8.22978 6.94431 8.17164 6.81723 8.16726 6.68296C8.13337 5.63942 8.4164 4.60996 8.97911 3.73049C8.99381 3.70751 9.01035 3.68566 9.02859 3.66538C9.36156 3.29541 9.78037 2.93225 10.3717 2.65562C10.9604 2.38023 11.6955 2.20265 12.6484 2.16734ZM12.123 3.209C11.5631 3.27483 11.1345 3.40267 10.7955 3.56122C10.3686 3.76092 10.0606 4.01987 9.79943 4.30471C9.45504 4.85497 9.24567 5.4761 9.18419 6.11786C10.0762 6.00271 10.7266 5.72998 11.1985 5.36004C11.6683 4.88303 11.9995 4.27352 12.123 3.209Z" fill="white"/>
</svg>
