<svg width="16" height="16" viewBox="0 0 16 16" fill="none" xmlns="http://www.w3.org/2000/svg">
<path d="M4.83333 4.00016V1.3335C4.83333 1.05735 5.05719 0.833496 5.33333 0.833496C5.60948 0.833496 5.83333 1.05735 5.83333 1.3335V4.00016C5.83333 4.2763 5.60948 4.50016 5.33333 4.50016C5.05719 4.50016 4.83333 4.2763 4.83333 4.00016Z" fill="#31674C"/>
<path d="M10.1667 4.00016V1.3335C10.1667 1.05735 10.3905 0.833496 10.6667 0.833496C10.9428 0.833496 11.1667 1.05735 11.1667 1.3335V4.00016C11.1667 4.2763 10.9428 4.50016 10.6667 4.50016C10.3905 4.50016 10.1667 4.2763 10.1667 4.00016Z" fill="#31674C"/>
<path d="M13.5 4.00016C13.5 3.53993 13.1269 3.16683 12.6667 3.16683H3.33333C2.8731 3.16683 2.5 3.53993 2.5 4.00016V13.3335C2.5 13.7937 2.8731 14.1668 3.33333 14.1668H12.6667C13.1269 14.1668 13.5 13.7937 13.5 13.3335V4.00016ZM14.5 13.3335C14.5 14.346 13.6792 15.1668 12.6667 15.1668H3.33333C2.32081 15.1668 1.5 14.346 1.5 13.3335V4.00016C1.5 2.98764 2.32081 2.16683 3.33333 2.16683H12.6667C13.6792 2.16683 14.5 2.98764 14.5 4.00016V13.3335Z" fill="#31674C"/>
<path d="M14 6.16683C14.2761 6.16683 14.5 6.39069 14.5 6.66683C14.5 6.94297 14.2761 7.16683 14 7.16683H2C1.72386 7.16683 1.5 6.94297 1.5 6.66683C1.5 6.39069 1.72386 6.16683 2 6.16683H14Z" fill="#31674C"/>
</svg>
