<svg width="16" height="16" viewBox="0 0 16 16" fill="none" xmlns="http://www.w3.org/2000/svg">
<path d="M13.4999 6.6666C13.4999 4.64469 13.065 3.35574 12.5454 2.23171C12.0176 2.78362 11.4677 3.18232 10.7232 3.50384C9.77288 3.91415 8.51739 4.1925 6.62746 4.55723C6.62402 4.55789 6.62048 4.55859 6.61704 4.55918C5.58681 4.73522 4.66028 5.29261 4.02134 6.11973C3.3825 6.94684 3.07793 7.9841 3.16782 9.02533C3.25779 10.0665 3.73582 11.0361 4.50701 11.7415C5.27819 12.4467 6.28622 12.8364 7.33123 12.8333H7.33318L7.63331 12.8255C10.7276 12.6589 13.4999 9.94251 13.4999 6.6666ZM14.4999 6.6666C14.4999 10.6181 11.0806 13.8321 7.33384 13.8326L7.33449 13.8333C6.03845 13.8372 4.78825 13.3538 3.83188 12.4791C2.87559 11.6045 2.2826 10.4024 2.17108 9.11126C2.0596 7.82004 2.43804 6.53406 3.23032 5.5084C4.02041 4.48562 5.16477 3.79575 6.438 3.57546C8.34807 3.20685 9.49362 2.94557 10.3267 2.58587C11.1249 2.24118 11.6469 1.80106 12.2772 1.01947L12.3202 0.972593C12.4259 0.871056 12.572 0.819948 12.7199 0.835874C12.8891 0.854133 13.0377 0.957763 13.1138 1.10996C13.7964 2.47522 14.4999 4.00939 14.4999 6.6666Z" fill="#31674C"/>
<path d="M0.833008 13.9999C0.833008 11.7573 2.23912 9.98199 4.62272 9.5097C5.36786 9.36187 6.14037 9.04968 6.81152 8.68939C7.48665 8.32697 8.0252 7.93405 8.31283 7.64642C8.50809 7.45116 8.8246 7.45116 9.01986 7.64642C9.21512 7.84168 9.21512 8.15819 9.01986 8.35345C8.64082 8.73249 8.01238 9.17934 7.28418 9.57025C6.55211 9.96322 5.68478 10.318 4.81673 10.4902C2.89371 10.8712 1.83301 12.2426 1.83301 13.9999C1.83301 14.2761 1.60915 14.4999 1.33301 14.4999C1.05687 14.4999 0.833008 14.2761 0.833008 13.9999Z" fill="#31674C"/>
</svg>
