<svg width="16" height="16" viewBox="0 0 16 16" fill="none" xmlns="http://www.w3.org/2000/svg">
<path d="M6.83301 2.66683V1.3335C6.83301 1.05735 7.05687 0.833496 7.33301 0.833496C7.60915 0.833496 7.83301 1.05735 7.83301 1.3335V2.66683C7.83301 2.94297 7.60915 3.16683 7.33301 3.16683C7.05687 3.16683 6.83301 2.94297 6.83301 2.66683Z" fill="#31674C"/>
<path d="M2.83301 2.66683V1.3335C2.83301 1.05735 3.05687 0.833496 3.33301 0.833496C3.60915 0.833496 3.83301 1.05735 3.83301 1.3335V2.66683C3.83301 2.94297 3.60915 3.16683 3.33301 3.16683C3.05687 3.16683 2.83301 2.94297 2.83301 2.66683Z" fill="#31674C"/>
<path d="M0.833008 6.00016V3.3335C0.833008 2.84727 1.0263 2.38109 1.37012 2.03727C1.71393 1.69346 2.18011 1.50016 2.66634 1.50016H3.33301C3.60915 1.50016 3.83301 1.72402 3.83301 2.00016C3.83301 2.27631 3.60915 2.50016 3.33301 2.50016H2.66634C2.44533 2.50016 2.23343 2.58802 2.07715 2.7443C1.92087 2.90058 1.83301 3.11248 1.83301 3.3335V6.00016C1.83301 6.92842 2.20202 7.81839 2.8584 8.47477C3.51478 9.13115 4.40475 9.50016 5.33301 9.50016C6.26127 9.50016 7.15124 9.13115 7.80762 8.47477C8.46399 7.81839 8.83301 6.92842 8.83301 6.00016V3.3335C8.83301 3.11248 8.74515 2.90058 8.58887 2.7443C8.43259 2.58802 8.22069 2.50016 7.99967 2.50016H7.33301C7.05687 2.50016 6.83301 2.27631 6.83301 2.00016C6.83301 1.72402 7.05687 1.50016 7.33301 1.50016H7.99967C8.4859 1.50016 8.95208 1.69346 9.2959 2.03727C9.63971 2.38109 9.83301 2.84727 9.83301 3.3335V6.00016C9.83301 7.19364 9.35921 8.33854 8.5153 9.18245C7.67139 10.0264 6.52648 10.5002 5.33301 10.5002C4.13953 10.5002 2.99463 10.0264 2.15072 9.18245C1.3068 8.33854 0.833008 7.19364 0.833008 6.00016Z" fill="#31674C"/>
<path d="M4.83301 10.0002C4.83301 9.72402 5.05687 9.50016 5.33301 9.50016C5.60915 9.50016 5.83301 9.72402 5.83301 10.0002C5.83301 10.9284 6.20202 11.8184 6.8584 12.4748C7.51478 13.1311 8.40475 13.5002 9.33301 13.5002C10.2613 13.5002 11.1512 13.1311 11.8076 12.4748C12.464 11.8184 12.833 10.9284 12.833 10.0002V8.00016C12.833 7.72402 13.0569 7.50016 13.333 7.50016C13.6091 7.50016 13.833 7.72402 13.833 8.00016V10.0002C13.833 11.1936 13.3592 12.3385 12.5153 13.1825C11.6714 14.0264 10.5265 14.5002 9.33301 14.5002C8.13953 14.5002 6.99463 14.0264 6.15072 13.1825C5.3068 12.3385 4.83301 11.1936 4.83301 10.0002Z" fill="#31674C"/>
<path d="M14.1663 6.66683C14.1663 6.20659 13.7932 5.8335 13.333 5.8335C12.8728 5.8335 12.4997 6.20659 12.4997 6.66683C12.4997 7.12707 12.8728 7.50016 13.333 7.50016C13.7932 7.50016 14.1663 7.12707 14.1663 6.66683ZM15.1663 6.66683C15.1663 7.67935 14.3455 8.50016 13.333 8.50016C12.3205 8.50016 11.4997 7.67935 11.4997 6.66683C11.4997 5.65431 12.3205 4.8335 13.333 4.8335C14.3455 4.8335 15.1663 5.65431 15.1663 6.66683Z" fill="#31674C"/>
</svg>
